<svg xmlns="http://www.w3.org/2000/svg" fill="none" viewBox="0 0 400 400" id="Coding-A-Website-1--Streamline-New-York.svg" height="400" width="400"><desc>Coding A Website 1 Streamline Illustration: https://streamlinehq.com</desc><g id="coding-a-website-1--development-coding-a-website-1"><g id="color"><g id="group"><path id="vector" fill="#000000" d="M26.038 241.24c-0.2 -0.024 -13.7 -1.54 -15.32 -1.81 -0.958 -0.106 -0.958 1.278 0 1.49 0.2 0.024 14.184 1.62 15.32 1.81 0.962 0.106 0.962 -1.38 0 -1.49Z" stroke-width="1"></path><path id="vector_2" fill="#000000" d="M14.868 226.984c-0.746 -0.532 -1.49 0.744 -0.746 1.276 4.04 2.878 13.2 9.576 13.724 10 0.746 0.532 1.492 -0.744 0.746 -1.276 -0.406 -0.29 -10.58 -7.484 -13.724 -10Z" stroke-width="1"></path><path id="vector_3" fill="#000000" d="M309.25 154.318c0.96 -9.432 0.128 -18.96 -2.45 -28.086a0.726 0.726 0 0 0 -1.312 -0.106 0.726 0.726 0 0 0 -0.07 0.532 71.01 71.01 0 0 1 2.34 27.768c-0.1 0.85 1.384 0.85 1.492 -0.108Z" stroke-width="1"></path><path id="vector_4" fill="#000000" d="M315.74 154.318c0.96 -9.432 0.13 -18.96 -2.448 -28.086a0.726 0.726 0 0 0 -1.312 -0.106 0.726 0.726 0 0 0 -0.07 0.532 71.01 71.01 0 0 1 2.34 27.768c-0.102 0.85 1.382 0.85 1.49 -0.108Z" stroke-width="1"></path><path id="vector_5" fill="#000000" d="M203.284 307.096h63.942a0.742 0.742 0 0 0 0.708 -0.746 0.742 0.742 0 0 0 -0.708 -0.744h-63.942a0.742 0.742 0 0 0 -0.708 0.744 0.744 0.744 0 0 0 0.708 0.746Z" stroke-width="1"></path><path id="vector_6" fill="#000000" d="M267.12 315.074H203.6a0.742 0.742 0 0 0 -0.708 0.744 0.744 0.744 0 0 0 0.708 0.746h63.52a0.742 0.742 0 0 0 0.708 -0.746 0.742 0.742 0 0 0 -0.708 -0.744Z" stroke-width="1"></path><path id="vector_7" fill="#000000" d="M266.694 324.436h-62.984a0.742 0.742 0 0 0 -0.708 0.746 0.742 0.742 0 0 0 0.708 0.744h62.984a0.742 0.742 0 0 0 0.708 -0.744 0.744 0.744 0 0 0 -0.708 -0.746Z" stroke-width="1"></path><path id="vector_8" fill="#000000" d="M58.7 158.788a45.942 45.942 0 0 0 -4.68 -11.81 0.76 0.76 0 0 0 -1.384 0.318v51.068a0.74 0.74 0 0 0 1.384 0.32 74.1 74.1 0 0 0 4.58 -13.832c1.87 -8.584 1.904 -17.466 0.1 -26.064Z" stroke-width="1"></path><path id="vector_9" fill="#000000" d="M264.884 106.762c-1.166 -3.772 -2.492 -9.696 -6.276 -10.958a3.4 3.4 0 0 0 -4.15 1.914c-0.712 2.034 1.6 3.732 2.874 4.894a50.676 50.676 0 0 0 6.488 4.894 0.5 0.5 0 0 0 0.596 0.044 0.492 0.492 0 0 0 0.15 -0.15c0.212 0 0.418 -0.316 0.318 -0.638Z" stroke-width="1"></path><path id="vector_10" fill="#000000" d="M61.36 215.706c-0.618 -2.888 -3.854 -4.4 -7.34 -0.744 -2.744 2.882 -3.754 7.632 -5.108 12.872a0.692 0.692 0 0 0 0.4 0.834 0.702 0.702 0 0 0 0.876 -0.302c2.084 -2.734 5.97 -2.884 8.3 -5.212a7.954 7.954 0 0 0 2.872 -7.448Z" stroke-width="1"></path><path id="vector_11" fill="#000000" d="M354.528 351.508c-9.334 -5.924 -22.218 -5.33 -31.554 0.272a0.76 0.76 0 0 0 -0.092 1.194 0.766 0.766 0 0 0 0.412 0.188c24.522 0 29.8 0.054 31 0 0.972 -0.052 1.218 -1.03 0.234 -1.654Z" stroke-width="1"></path><path id="vector_12" fill="#000000" d="M389.276 351.482c-9.33 -5.896 -22.19 -5.296 -31.512 0.298a0.76 0.76 0 0 0 -0.094 1.192 0.76 0.76 0 0 0 0.412 0.19c24.016 0 29.576 0.052 30.916 0 1.234 -0.05 1.276 -1.05 0.278 -1.68Z" stroke-width="1"></path><path id="vector_13" fill="#000000" d="M339.252 231.026a4.248 4.248 0 0 0 -3.4 -0.426 8.384 8.384 0 0 0 -3.2 1.49 21.964 21.964 0 0 0 -5.532 6.384 0.694 0.694 0 0 0 -0.04 0.686 0.68 0.68 0 0 0 0.236 0.264c0.1 0.068 0.216 0.106 0.336 0.114a22.152 22.152 0 0 0 11.064 -4.47c1.284 -0.956 2.226 -2.75 0.536 -4.042Z" stroke-width="1"></path><path id="vector_14" fill="#000000" d="M360.848 282.094c-0.554 -2.59 -5.638 -1.266 -5.638 1.6 0 1.6 1.702 1.8 2.872 1.6 1.384 -0.434 3.086 -1.71 2.766 -3.2Z" stroke-width="1"></path><path id="vector_15" fill="#000000" d="M374.042 236.558c-3.086 4.894 -10.214 16.066 -10.746 16.81 -0.532 0.744 0.744 1.49 1.276 0.744 3.086 -4.894 10.214 -16.064 10.746 -16.8a0.748 0.748 0 0 0 -0.26 -1.016 0.738 0.738 0 0 0 -0.562 -0.078 0.736 0.736 0 0 0 -0.454 0.34Z" stroke-width="1"></path><path id="vector_16" fill="#000000" d="M367.764 255.816c-0.85 0.424 -0.106 1.6 0.746 1.276 14.9 -7.284 15.642 -7.6 16.384 -8.086 0.85 -0.426 0.106 -1.6 -0.746 -1.276 -21.122 10.326 -14.56 7.304 -16.384 8.086Z" stroke-width="1"></path></g></g><g id="line"><g id="group_2"><path id="vector_17" fill="#000000" d="M26.038 241.24c-0.2 -0.024 -13.7 -1.54 -15.32 -1.81 -0.958 -0.106 -0.958 1.278 0 1.49 0.2 0.024 14.184 1.62 15.32 1.81 0.962 0.106 0.962 -1.38 0 -1.49Z" stroke-width="1"></path><path id="vector_18" fill="#000000" d="M14.868 226.984c-0.746 -0.532 -1.49 0.744 -0.746 1.276 4.04 2.878 13.2 9.576 13.724 10 0.746 0.532 1.492 -0.744 0.746 -1.276 -0.406 -0.29 -10.58 -7.484 -13.724 -10Z" stroke-width="1"></path><path id="vector_19" fill="#000000" d="M309.25 154.318c0.96 -9.432 0.128 -18.96 -2.45 -28.086a0.726 0.726 0 0 0 -1.312 -0.106 0.726 0.726 0 0 0 -0.07 0.532 71.01 71.01 0 0 1 2.34 27.768c-0.1 0.85 1.384 0.85 1.492 -0.108Z" stroke-width="1"></path><path id="vector_20" fill="#000000" d="M315.74 154.318c0.96 -9.432 0.13 -18.96 -2.448 -28.086a0.726 0.726 0 0 0 -1.312 -0.106 0.726 0.726 0 0 0 -0.07 0.532 71.01 71.01 0 0 1 2.34 27.768c-0.102 0.85 1.382 0.85 1.49 -0.108Z" stroke-width="1"></path><path id="vector_21" fill="#000000" d="M58.7 238.628a6.252 6.252 0 0 1 -1.49 0.212v2.506c0.426 -0.106 0.958 -0.32 1.49 -0.426v-2.292Z" stroke-width="1"></path><path id="vector_22" fill="#000000" d="M58.7 226.974v-4.43c-0.318 0.318 -1.276 0.958 -1.382 1.064v3.472c0.434 -0.196 0.924 -0.234 1.382 -0.106Z" stroke-width="1"></path><path id="vector_23" fill="#000000" d="M135.278 288.484c0.426 0.532 1.4 1.376 1.938 1.908h147.114c0.106 -0.532 0.4 -1.376 0.51 -1.908H135.278Z" stroke-width="1"></path><path id="vector_24" fill="#000000" d="M124.768 242.516c1.81 2.448 15.308 20.862 15.96 21.704 0.416 0.538 1.382 0.426 1.382 -0.32v-42.98c0 -0.746 -0.968 -0.86 -1.382 -0.32 -1.856 2.412 -15.32 20.32 -15.96 21.172a0.636 0.636 0 0 0 0 0.744Zm6.6 -7.34c4.854 -6.572 8.968 -11.8 9.256 -12.236v38.62c-0.154 -0.2 -14.234 -19.372 -14.362 -19.576 1.698 -2.234 3.384 -4.48 5.102 -6.808h0.004Z" stroke-width="1"></path><path id="vector_25" fill="#000000" d="M209.03 263.8c0.006 0.16 0.066 0.314 0.17 0.438a0.728 0.728 0 0 0 0.868 0.202 0.732 0.732 0 0 0 0.344 -0.32c1.75 -2.49 15.322 -20.852 15.96 -21.704a0.914 0.914 0 0 0 0 -0.744c-1.81 -2.448 -16.066 -21.278 -16.066 -21.278 -0.372 -0.748 -1.562 -0.042 -1.276 0.532V263.8Zm1.382 -40.854c1.384 1.81 13.832 18.3 14.364 19.044 -0.698 0.958 -13.282 17.954 -14.364 19.576v-38.62Z" stroke-width="1"></path><path id="vector_26" fill="#000000" d="M159.452 266.56c1.744 -2.906 28.726 -46.428 28.726 -46.812 0.532 -0.744 -0.746 -1.488 -1.278 -0.744 -1.744 2.908 -28.724 46.428 -28.724 46.812 -0.426 0.85 0.85 1.596 1.276 0.744Z" stroke-width="1"></path><path id="vector_27" fill="#000000" d="M202.752 223.8v-2.766a0.74 0.74 0 0 0 -1.27 -0.526 0.74 0.74 0 0 0 -0.218 0.526v2.766a0.74 0.74 0 0 0 1.27 0.526 0.74 0.74 0 0 0 0.218 -0.526Z" stroke-width="1"></path><path id="vector_28" fill="#000000" d="M195.838 271.986a6.968 6.968 0 0 0 5.264 -2.656 6.96 6.96 0 0 0 1.336 -5.744 0.722 0.722 0 1 0 -1.384 0.426 5.504 5.504 0 0 1 -1.066 4.516 5.5 5.5 0 0 1 -4.146 2.084 0.674 0.674 0 0 0 -0.29 0.026 0.69 0.69 0 0 0 0.286 1.348Z" stroke-width="1"></path><path id="vector_29" fill="#000000" d="M286.694 206.77c2.236 -1.916 4.47 -3.724 6.704 -5.64 0.744 -0.638 -0.32 -1.6 -1.064 -1.064 -2.234 1.916 -4.468 3.724 -6.704 5.64 -0.744 0.638 0.32 1.694 1.064 1.064Z" stroke-width="1"></path><path id="vector_30" fill="#000000" d="M64.764 202.94c-0.638 -0.64 -1.6 0.318 -1.064 1.062 2.128 2.342 4.308 4.84 6.49 7.13 0.624 0.652 1.6 -0.32 1.064 -1.064 -2.128 -2.342 -4.362 -4.682 -6.49 -7.128Z" stroke-width="1"></path><path id="vector_31" fill="#000000" d="M296.27 342.2a3.962 3.962 0 0 0 -0.958 -0.958h-122.88c14.188 -18.914 14.814 -19.764 17.342 -23.298a0.72 0.72 0 0 0 -0.64 -1.064c-22.264 0 -19.464 -0.22 -20.106 0.424 -4.15 6.066 -15.108 22.024 -16.492 23.938 0 0 -92.878 -0.106 -93.836 0V327.6c-0.32 -0.106 -1.276 -0.532 -1.49 -0.638V342a0.684 0.684 0 0 0 0.746 0.69c254.832 -0.008 239.756 0.234 238.314 -0.49Zm-141.924 -0.958c4.894 -7.022 15.32 -22.236 15.744 -22.874h17.768c-5.528 7.822 -14.888 19.514 -17.128 22.874h-16.384Z" stroke-width="1"></path><path id="vector_32" fill="#000000" d="M203.284 307.096h63.942a0.742 0.742 0 0 0 0.708 -0.746 0.742 0.742 0 0 0 -0.708 -0.744h-63.942a0.742 0.742 0 0 0 -0.708 0.744 0.744 0.744 0 0 0 0.708 0.746Z" stroke-width="1"></path><path id="vector_33" fill="#000000" d="M267.12 315.074H203.6a0.742 0.742 0 0 0 -0.708 0.746 0.742 0.742 0 0 0 0.708 0.744h63.52a0.742 0.742 0 0 0 0.708 -0.744 0.744 0.744 0 0 0 -0.708 -0.746Z" stroke-width="1"></path><path id="vector_34" fill="#000000" d="M266.694 324.436h-62.984a0.742 0.742 0 0 0 -0.708 0.746 0.742 0.742 0 0 0 0.708 0.744h62.984a0.742 0.742 0 0 0 0.708 -0.744 0.744 0.744 0 0 0 -0.708 -0.746Z" stroke-width="1"></path><path id="vector_35" fill="#000000" d="M62.424 338.48a444.208 444.208 0 0 0 5.958 -5.106c0.738 -0.646 -0.32 -1.6 -1.064 -1.064 -2.022 1.702 -4.042 3.4 -5.958 5.106 -0.638 0.638 0.426 1.702 1.064 1.064Z" stroke-width="1"></path><path id="vector_36" fill="#000000" d="M34.336 262.944V48.42h237.174c0.958 0 1.034 -1.662 0.078 -1.662H33.912a0.722 0.722 0 0 0 -0.958 0.744v220.868c0.332 -1.838 0.794 -3.652 1.382 -5.426Z" stroke-width="1"></path><path id="vector_37" fill="#000000" d="M32.848 342a0.744 0.744 0 1 0 1.488 0v-44.346a104.974 104.974 0 0 1 -1.488 -5.534V342Z" stroke-width="1"></path><path id="vector_38" fill="#000000" d="M45.188 317.536V342a0.742 0.742 0 0 0 0.744 0.708 0.744 0.744 0 0 0 0.746 -0.708v-22.87c-0.32 -0.318 -1.278 -1.382 -1.49 -1.594Z" stroke-width="1"></path><path id="vector_39" fill="#000000" d="M283.078 58.568H45.508a0.942 0.942 0 0 0 -0.744 0.744v188.098a18.22 18.22 0 0 1 1.488 -1.064V60.056h236.826a0.744 0.744 0 1 0 0 -1.488Z" stroke-width="1"></path><path id="vector_40" fill="#000000" d="m63.43 196.982 -0.018 -1.384s-3.754 -0.106 -4.712 0v-12.256c-0.384 1.908 -0.88 3.79 -1.49 5.638v24.96c0.484 -0.156 1.006 -0.156 1.49 0 0 0 0.06 -13.262 0.044 -16.958h4.686Z" stroke-width="1"></path><path id="vector_41" fill="#000000" d="M70.296 103.57c0.646 0.632 1.71 -0.432 1.064 -1.064 -2.314 -2.26 -4.706 -4.44 -6.914 -6.6 -0.646 -0.63 -1.71 0.434 -1.064 1.064 2.218 2.16 4.6 4.34 6.914 6.6Z" stroke-width="1"></path><path id="vector_42" fill="#000000" d="M288.29 103.252c2.156 -2.2 4.336 -4.496 6.49 -6.704a0.756 0.756 0 0 0 -1.064 -1.064c-2.128 2.234 -4.362 4.47 -6.49 6.704 -0.532 0.744 0.434 1.71 1.064 1.064Z" stroke-width="1"></path><path id="vector_43" fill="#000000" d="M299.78 69.844a0.744 0.744 0 0 0 -0.212 -0.532 0.728 0.728 0 0 0 -0.532 -0.212H57.956a0.73 0.73 0 0 0 -0.746 0.744v85.05c0.426 1.276 1.384 4.574 1.49 4.892 0 0 0.066 -66.386 0.042 -67.6h239.55v103.2H268.4c-0.852 0.532 -1.702 0.956 -2.66 1.488h32.556v70.6c0.518 -0.322 1.016 -0.678 1.488 -1.064l-0.004 -196.566ZM58.7 90.698V70.376s238.634 0.108 239.6 0v20.322s-238.642 -0.098 -239.6 0Z" stroke-width="1"></path><path id="vector_44" fill="#000000" d="M88.702 85.164a0.72 0.72 0 0 0 0.638 -1.064c-1.612 -2.256 -6.012 -9.154 -6.064 -9.256a0.8 0.8 0 0 0 -1.276 0c-6.106 9.542 -6.498 9.356 -5.852 10 0.226 0.454 -0.45 0.32 12.554 0.32Zm-6.064 -8.616c1.6 2.34 3.086 4.68 4.682 7.128 0 0.2 0.72 0.106 -9.364 0.106 0.622 -0.91 4.682 -7.044 4.682 -7.234Z" stroke-width="1"></path><path id="vector_45" fill="#000000" d="M275.098 76.016h16.384a0.748 0.748 0 0 0 0.502 -1.26 0.748 0.748 0 0 0 -0.502 -0.23h-16.384c-0.85 0 -0.958 1.49 0 1.49Z" stroke-width="1"></path><path id="vector_46" fill="#000000" d="M275.098 81.228h16.384a0.748 0.748 0 0 0 0 -1.49h-16.384c-0.85 0.108 -0.958 1.49 0 1.49Z" stroke-width="1"></path><path id="vector_47" fill="#000000" d="M275.098 86.442h16.384a0.748 0.748 0 0 0 0.502 -1.26 0.748 0.748 0 0 0 -0.502 -0.23h-16.384c-0.85 0.106 -0.958 1.49 0 1.49Z" stroke-width="1"></path><path id="vector_48" fill="#000000" d="M97.852 85.484a5.718 5.718 0 1 0 -5.532 -9.256 5.716 5.716 0 0 0 5.532 9.256Zm-4.788 -7.766a4.292 4.292 0 0 1 7.98 2.128 4.276 4.276 0 1 1 -7.98 -2.128Z" stroke-width="1"></path><path id="vector_49" fill="#000000" d="M106.682 86.016c6.544 0 8.888 0.032 9.774 0 0.886 -0.032 0.85 -0.372 0.868 -1.114 0.024 -1.052 0 -3.52 0 -9.52a0.726 0.726 0 0 0 -0.746 -0.744h-10a0.722 0.722 0 0 0 -0.744 0.744v10a1.102 1.102 0 0 0 0.848 0.634Zm0.638 -10h8.512v8.51H107.32v-8.51Z" stroke-width="1"></path><path id="vector_50" fill="#000000" d="M247.118 196.662c21.4 -0.684 42.898 -23.092 43.088 -53.2l0 -3.084a0.74 0.74 0 0 0 -0.746 -0.708 0.744 0.744 0 0 0 -0.744 0.708 66.442 66.442 0 0 1 -3.83 23.724c-6.42 17.536 -20.948 28.782 -34.47 30.854A28.214 28.214 0 0 1 228.18 188.8a30.2 30.2 0 0 1 -9.788 -19.044c-0.122 -0.85 -0.218 -1.702 -0.318 -2.554a0.74 0.74 0 0 0 -0.746 -0.708 0.744 0.744 0 0 0 -0.744 0.708c0.85 7.448 3.13 14.95 8.298 20.534a29.4 29.4 0 0 0 22.236 8.926Z" stroke-width="1"></path><path id="vector_51" fill="#000000" d="M267.064 135.248c-4.024 8.166 -10.748 23.1 -12.532 28.134 -1.89 -3.774 -3.88 -7.55 -5.768 -11.324 -0.424 -0.85 -1.702 -0.106 -1.276 0.746 2.234 4.148 4.362 8.4 6.49 12.554a0.654 0.654 0 0 0 0.86 0.544 0.65 0.65 0 0 0 0.31 -0.226c0.33 -0.33 5.28 -13.012 13.2 -29.682 0.4 -0.86 -0.858 -1.594 -1.284 -0.746Z" stroke-width="1"></path><path id="vector_52" fill="#000000" d="M257.332 102.72a58.25 58.25 0 0 0 6.488 4.894c0.558 0.362 1.144 -0.254 0.958 -0.852 -1.166 -3.77 -2.492 -9.696 -6.276 -10.958a3.36 3.36 0 0 0 -4.15 1.914c-0.67 2.118 1.612 3.812 2.98 5.002Zm0.956 -5.426c2.566 0.854 4.02 5.662 4.682 7.978a43.916 43.916 0 0 1 -5.426 -4.254 4.534 4.534 0 0 1 -1.702 -2.022c-0.532 -1.384 1.49 -2.022 2.446 -1.702Z" stroke-width="1"></path><path id="vector_53" fill="#000000" d="M119.768 171.448h9.15a0.744 0.744 0 0 0 0 -1.49h-9.15c-0.85 0 -0.85 1.49 0 1.49Z" stroke-width="1"></path><path id="vector_54" fill="#000000" d="M166.474 131.976c0 0.32 0.426 0.532 0.744 0.532h12.768a0.6 0.6 0 0 0 0.638 -0.532c0 -0.734 -4.024 -27.932 -4.15 -28.618 0 -0.32 -0.426 -0.532 -0.744 -0.532h-12.768c-0.532 0 -0.744 0.426 -0.744 0.96 0.648 4.852 4.11 27.39 4.256 28.19Zm8.618 -27.874c0.028 0.2 3.96 26.6 4.042 26.92h-11.278c-0.028 -0.2 -3.96 -26.6 -4.042 -26.92h11.278Z" stroke-width="1"></path><path id="vector_55" fill="#000000" d="M290.95 130.274a21.444 21.444 0 0 0 -14.468 -11.384 21.05 21.05 0 0 0 -13.412 1.74c-7.832 3.288 -9.928 5.874 -12.016 8.262a91.556 91.556 0 0 0 -7.834 11.948c-3.7 -7.36 -7.566 -15.04 -13.55 -20.46a22.466 22.466 0 0 0 -19.576 -5.744c-2.34 0.608 -4.618 1.426 -6.81 2.446 -2.34 0.96 -4.786 1.916 -7.02 2.98 -2.768 1.382 -5.958 3.936 -5.32 7.446a5.2 5.2 0 0 0 7.128 3.292c-0.302 0.232 -0.556 0.52 -0.746 0.852 -2.892 3.856 -1.156 8.102 3.298 8.936 3.364 0.722 6.438 -1.4 9.576 -2.978 -0.638 0.424 -1.17 0.956 -1.8 1.382a6.286 6.286 0 0 0 -2.872 4.468 4.016 4.016 0 0 0 1.276 2.874 6.448 6.448 0 0 0 3.2 1.17 11.868 11.868 0 0 0 5.958 -1.276c-0.084 2.07 -0.616 7.862 -0.546 13.882a58.522 58.522 0 0 1 -9.988 -2.712c-3.4 -1.51 -0.828 0.716 -23.086 -21.704 -1.118 -1.49 -1.732 -1.064 -4.362 -1.064h-9.804a0.76 0.76 0 0 0 -0.532 1.28c1 1.092 2.084 2.108 3.11 3.18 -13.89 -4.2 -29.508 -5.02 -33.432 -4.46 -25.368 1 -52.93 18.84 -63.148 34.822 -3.464 0.734 -7.518 1.72 -10.8 2.416a0.8 0.8 0 0 0 -0.54 0.744v23.652a0.724 0.724 0 0 0 0.738 0.748h122.93c15.038 8.102 31.988 9.618 50.508 7.948 30.112 -2.938 47.88 -18.338 54.686 -35.214 5.53 -14.03 4.476 -29.03 -0.746 -39.472Zm-121.072 5.852h10.746l17.554 17.554h-10.746l-17.554 -17.554Zm-105.646 59.26V173.256c81.238 -17.77 85.116 -4.38 111.816 16.6a89.964 89.964 0 0 0 7.888 5.532l-119.704 0Zm137.032 5.958a75.374 75.374 0 0 1 -12.864 -5.108c-18.622 -9.6 -27.374 -26.264 -49.578 -31.066 -18.112 -3.836 -41.85 0.056 -60.216 3.512a16.278 16.278 0 0 0 -2.448 0.532c10.226 -15.354 37.254 -32.234 61.164 -33.088a102.744 102.744 0 0 1 35.576 5.2c0.17 0.184 10.492 10.764 12.62 12.892 1.386 1.386 0.496 1.064 4.468 1.064h9.552c0.6 0.502 1.252 1.016 1.832 1.6 0 14.448 -0.106 17.9 -0.106 44.462Zm64.7 -77.716a11.634 11.634 0 0 1 -9.59 2.284h-0.056a35.794 35.794 0 0 1 12.542 -5.712 11.12 11.12 0 0 1 -2.896 3.428ZM210.838 146.34a6.238 6.238 0 0 1 -2.766 -0.638 2.41 2.41 0 0 1 -1.17 -2.236c0.134 -1.878 2.216 -2.938 6.916 -6.914a24.558 24.558 0 0 0 3.298 -3.2c0.426 -0.746 -0.522 -1.37 -1.17 -0.852a50.274 50.274 0 0 1 -6.6 3.94 25.092 25.092 0 0 1 -6.914 2.976c-3.8 0.316 -6.906 -2.864 -4.256 -6.7 1.2 -1.754 8.626 -5.958 11.6 -7.98a0.74 0.74 0 0 0 -0.21 -1.312 0.744 0.744 0 0 0 -0.534 0.034c-3.618 1.702 -7.022 3.936 -10.64 5.64 -4.388 2.2 -7.896 -1.6 -5.426 -4.896a8.894 8.894 0 0 1 3.618 -2.766c3.13 -1.544 9.81 -4.106 12.236 -5a20.424 20.424 0 0 1 18.51 3.936c5.64 4.362 9.128 10.92 12.448 17.022a1426 1426 0 0 1 5.532 11.066c0.2 0.43 0.852 1.17 0.32 1.6 -2.242 1.346 9.612 -4.932 -28.512 14.47a37.608 37.608 0 0 1 -0.426 -8.086c0 -3.92 0.638 -10.552 0.638 -11.276a0.802 0.802 0 0 0 -0.958 -0.746 11.894 11.894 0 0 1 -5.534 1.92Zm53.516 49.79c-18.666 9.332 -41.482 8.862 -61.708 5.762 0 -15.106 0.176 -31.64 0.108 -44.112a52.006 52.006 0 0 0 12.672 3.74c0.064 2.462 -0.014 4.182 1.264 4.6 1.148 0.284 0.092 0.22 27.768 -13.62 1.28 -0.64 2.2 -0.968 2.766 -1.8 0.566 -0.832 0.106 -1.6 -0.32 -2.448 -0.054 -0.114 -1.646 -3.338 -2.942 -5.932 0.788 -1.368 1.678 -2.812 2.518 -4.174a53.114 53.114 0 0 1 8.298 -11.172 12.782 12.782 0 0 0 15.746 -6.916 19.6 19.6 0 0 1 19.15 10.96c9.894 21.892 2.74 51.336 -25.32 65.112Z" stroke-width="1"></path><path id="vector_56" fill="#000000" d="M239.138 189.108c1.188 0.716 2.448 1.6 3.618 2.34 0.744 0.532 1.49 -0.744 0.744 -1.276 -1.17 -0.744 -2.43 -1.624 -3.616 -2.34 -0.736 -0.444 -1.484 0.834 -0.746 1.276Z" stroke-width="1"></path><path id="vector_57" fill="#000000" d="M128.386 139.104c-3.214 0.884 -6.4 1.856 -9.576 2.98 -0.856 0.304 -0.536 1.688 0.426 1.382 3.178 -1 6.384 -1.914 9.576 -2.978 0.85 -0.212 0.42 -1.616 -0.426 -1.384Z" stroke-width="1"></path><path id="vector_58" fill="#000000" d="M59.552 179.214c1.342 -11.37 -0.026 -22.414 -5.64 -32.236a0.756 0.756 0 0 0 -1.382 0.32c0 1.702 -0.106 48.94 0 50.96 0 1.02 1.03 1.152 1.382 0.32a74.85 74.85 0 0 0 3.088 -8.086 64.664 64.664 0 0 0 2.552 -11.278Zm-5.426 15.746V150.276c6.324 13.176 5.426 31.42 0 44.684Z" stroke-width="1"></path><path id="vector_59" fill="#000000" d="M259.884 119.316a6.19 6.19 0 0 0 4.882 -5.44 6.188 6.188 0 0 0 -3.694 -6.31 6.2 6.2 0 0 0 -7.788 8.878 6.598 6.598 0 0 0 6.6 2.872Zm-5.32 -8.618a4.814 4.814 0 0 1 8.938 2.448 4.726 4.726 0 0 1 -6.01 4.56 4.726 4.726 0 0 1 -2.39 -1.582 4.498 4.498 0 0 1 -0.538 -5.426Z" stroke-width="1"></path><path id="vector_60" fill="#000000" d="M63.168 236.026a5.776 5.776 0 0 0 -1.064 -8.086 6.344 6.344 0 0 0 -3.51 -1.488 6.466 6.466 0 0 0 -4.256 0.956 6.968 6.968 0 0 0 -3.51 6.6c0.664 5.746 8.508 7.392 12.34 2.018Zm-10.638 -1.382c-1.286 -4.176 4.7 -9.094 8.618 -5.64a4.496 4.496 0 0 1 1.276 5.64 6.354 6.354 0 0 1 -4.788 3.4 5.12 5.12 0 0 1 -5.106 -3.4Z" stroke-width="1"></path><path id="vector_61" fill="#000000" d="M69.02 301.138c-0.212 -5.214 -0.4 -10.542 -0.852 -15.746a0.744 0.744 0 1 0 -1.488 0c0.318 5.212 0.638 10.532 0.85 15.746 0.108 0.85 1.596 0.85 1.49 0Z" stroke-width="1"></path><path id="vector_62" fill="#000000" d="M163.282 320.6a29.582 29.582 0 0 0 -5.214 -7.766c-6.442 -7.78 -49.322 -52.748 -54.6 -56.888 4.256 -4.21 10.074 -8.012 8.538 -12.478a4.97 4.97 0 0 0 -2.872 -2.98c-2.386 -0.8 -5 2 -7.342 3.83 -1.614 1.266 -2.222 2.272 1.384 -2.234a9.022 9.022 0 0 0 1.914 -7.446 4.646 4.646 0 0 0 -5 -3.4c-2.836 0.388 -4.48 4.162 -5.106 4.788 0.638 -2.446 1.6 -6.382 -1.49 -7.554 -2.872 -1.064 -5.106 1.49 -6.384 3.618 -1.7 2.87 -3.294 5.738 -5.2 8.6a37.284 37.284 0 0 0 -12.136 -1.906 50.468 50.468 0 0 0 -12.554 2.128 38.424 38.424 0 0 0 -15.106 8.512c-16.6 16.6 -13.668 58.17 10.2 74.866a31.78 31.78 0 0 0 19.6 5.884 36.742 36.742 0 0 0 23.62 -8.4 24.88 24.88 0 0 0 6.702 -12.662c0.4 -1.822 1.018 -4.2 1.352 -6.066 2.528 3.478 5.056 7.058 7.584 10.536a218.574 218.574 0 0 0 -5.958 8.298 11.532 11.532 0 0 0 -2.766 7.66 5.638 5.638 0 0 0 3.83 5.106c2.766 0.746 5.214 -1.17 7.022 -2.978 2.66 -2.554 5.214 -5.214 7.768 -7.874 2.658 0.746 4.148 3.724 4.786 6.172 0.746 2.978 0.852 6.702 3.298 8.936a5.512 5.512 0 0 0 7.128 0.638 7.856 7.856 0 0 0 2.128 -6.382c0 -2.554 -0.106 -5.108 -0.318 -7.662 4.2 7.464 4.894 9.508 7.022 10.852a4.028 4.028 0 0 0 4.566 -0.184c0.434 -0.322 0.8 -0.73 1.072 -1.198a12 12 0 0 0 1.25 -7.444c-0.282 -1.93 -0.78 -3.82 -1.488 -5.638 1.73 1.442 4.288 3.982 6.8 4.574 3.368 0.84 6.488 -3.302 5.97 -5.858Zm-77.346 -83.4c3 -5.152 3.564 -6.148 4.788 -7.128a2.3 2.3 0 0 1 3.4 0.426c0.744 1.276 0.138 2.984 -0.106 4.362a22.634 22.634 0 0 1 -3.618 8.94c-0.516 0.756 0.746 1.49 1.278 0.746 3.116 -4.23 5.696 -10.238 7.872 -11.6a2.976 2.976 0 0 1 3.78 0.764c0.29 0.368 0.488 0.798 0.582 1.256 1.288 4.724 -4.6 8.464 -6.49 13.2 -0.302 0.752 0.752 1.074 1.17 0.746 6.144 -4.814 7.72 -7.038 9.682 -7.234 1.17 -0.108 2.128 1.17 2.448 2.126 0.85 2.342 -1.278 4.364 -2.768 5.958 -2.036 2.2 -3.758 3.44 -6.382 6.066 -0.32 0.424 -0.958 0.744 -1.17 1.276 -0.228 0.61 -0.3 1.268 -0.214 1.914a189.634 189.634 0 0 0 -0.106 20.64c0 0.638 0.212 1.49 -0.638 1.6 -0.2 0 -30.228 1.238 -30.428 1.278 -0.638 0 -1.064 -0.108 -1.17 -0.852 -0.314 -3.768 -0.688 -14.682 -1.064 -19.576a0.762 0.762 0 0 0 -0.32 -0.638c-2.234 -0.958 -4.362 -2.128 -6.49 -3.298a15.512 15.512 0 0 1 -5.106 -4.362c-1.526 -2.4 1.322 -4.178 4.682 -3.618 4.308 0.616 5.65 2.51 7.978 3.4 6.39 2.444 14.76 -10.556 18.41 -16.392Zm15.214 70.644c-1.83 8.232 -5.082 12.292 -10.214 15.534 -10.134 6.4 -26.314 7.654 -37.342 -0.108 -11.464 -8 -18 -21.8 -19.896 -35.428 -1.662 -13.708 1.294 -25.03 5.108 -31.384a29.394 29.394 0 0 1 13.51 -12.022 40.792 40.792 0 0 1 28.764 -2.444 49.016 49.016 0 0 1 -5.144 6.274c-0.958 0.934 -1.99 1.788 -3.086 2.552 -3.856 2.686 -4.688 0.636 -8.4 -0.956 -8.69 -4.012 -14.056 1.158 -9.576 5.638a37.982 37.982 0 0 0 10.746 6.8c0.49 10.558 0.936 17.032 0.958 17.236a7.832 7.832 0 0 0 0.424 3.086 2.354 2.354 0 0 0 2.128 1.064c2.98 -0.054 27.874 -1.064 30.428 -1.278a1.846 1.846 0 0 0 0.784 -0.2c1.68 19.02 2.5 17.846 0.808 25.632v0.004Zm2.448 -7.34c-1.412 -12.548 -3.214 -30.238 -1.81 -42.876l0.694 -0.694c6.924 6.696 18.724 18.862 25.16 25.908 -0.2 0.17 -22.568 19.27 -22.768 19.47 -0.1 -0.204 -1.274 -1.812 -1.274 -1.812l-0.002 0.004Zm56.812 23.512c-1.288 1.288 -2.176 1.24 -3.83 0.532a31.13 31.13 0 0 1 -7.768 -6.6c-0.532 -0.64 -1.382 0.212 -1.17 0.85a45.48 45.48 0 0 1 2.66 7.234c1.4 5.872 -1.294 11.174 -4.574 8.832 -1.84 -1.38 -1.91 -2.484 -8.086 -13.512 -0.426 -0.746 -1.384 -0.214 -1.276 0.532 0.432 2.96 0.68 5.944 0.744 8.936a11.864 11.864 0 0 1 -0.852 6.49 3.714 3.714 0 0 1 -5.426 0.638c-4.48 -3.2 -1.072 -11.22 -8.084 -15.426 -3.036 -1.214 -0.866 -1.452 -8.938 6.276 -1.788 1.712 -4.092 4.692 -6.702 4.256a3.7 3.7 0 0 1 -2.448 -1.914c-1.488 -2.766 -0.106 -5.746 1.49 -8.086 2.022 -3.086 4.256 -6.064 6.49 -9.044a0.908 0.908 0 0 0 0 -0.744c-2.436 -3.284 -4.662 -6.568 -7 -9.854 2.6 -2.2 23.268 -19.828 23.322 -19.88 2.068 2.176 27.258 28.848 30.908 33.884 2.104 2.89 3.052 4.084 0.54 6.596v0.004Z" stroke-width="1"></path><path id="vector_63" fill="#000000" d="M72.318 324.436h-7.554a0.74 0.74 0 0 0 -0.708 0.746 0.744 0.744 0 0 0 0.708 0.744h7.554a0.74 0.74 0 0 0 0.708 -0.744 0.744 0.744 0 0 0 -0.708 -0.746Z" stroke-width="1"></path><path id="vector_64" fill="#000000" d="M113.172 276.03c0.534 0.742 1.8 0 1.276 -0.746 -1.4 -2 -2.766 -3.936 -4.042 -5.958 -0.532 -0.744 -1.8 0 -1.276 0.746 1.402 2.006 2.67 4.038 4.042 5.958Z" stroke-width="1"></path><path id="vector_65" fill="#000000" d="M58.7 223.26a8.164 8.164 0 0 0 2.66 -7.448 3.282 3.282 0 0 0 -2.66 -2.766 0.642 0.642 0 0 1 -0.426 -0.106 5.904 5.904 0 0 0 -4.254 2.128c-2.744 2.884 -3.754 7.632 -5.108 12.872a0.7 0.7 0 0 0 0.896 0.85 0.702 0.702 0 0 0 0.38 -0.318c1.812 -2.368 4.026 -2.222 8.512 -5.212Zm-2.766 0c-1.728 0.722 -3.4 1.576 -5 2.552 1.016 -3.894 3.492 -12.21 7.554 -11.702a1.842 1.842 0 0 1 1.488 1.8 7.108 7.108 0 0 1 -4.042 7.35Z" stroke-width="1"></path><path id="vector_66" fill="#000000" d="M84.766 254.644a30.226 30.226 0 0 0 5.32 -7.34c0.432 -0.848 -0.838 -1.588 -1.278 -0.744a29.64 29.64 0 0 1 -5.106 7.02c-0.63 0.648 0.434 1.71 1.064 1.064Z" stroke-width="1"></path><path id="vector_67" fill="#000000" d="M92.532 256.56a19.566 19.566 0 0 0 3.724 -5.746c0.426 -0.85 -0.852 -1.6 -1.276 -0.744a18.306 18.306 0 0 1 -3.512 5.426c-0.532 0.744 0.41 1.794 1.064 1.064Z" stroke-width="1"></path><path id="vector_68" fill="#000000" d="M129.982 311.67a11.28 11.28 0 0 1 4.15 4.256c0.446 0.84 1.702 0.106 1.276 -0.746a13.114 13.114 0 0 0 -4.682 -4.786c-0.738 -0.438 -1.48 0.836 -0.744 1.276Z" stroke-width="1"></path><path id="vector_69" fill="#000000" d="M144.558 312.946a0.74 0.74 0 0 0 0.976 0.208 0.746 0.746 0 0 0 0.3 -0.952 21.474 21.474 0 0 0 -5.214 -5.852c-0.73 -0.55 -1.494 0.646 -0.744 1.278 1.854 1.49 3.44 3.29 4.682 5.318Z" stroke-width="1"></path><path id="vector_70" fill="#000000" d="M354.466 353.056c1.18 0 1 -1.276 0.426 -1.276 -9.354 -6.1 -22.39 -5.548 -31.812 0.106a0.76 0.76 0 0 0 -0.092 1.194 0.766 0.766 0 0 0 0.412 0.188c32.922 0 23.342 -0.212 31.066 -0.212Zm-28.088 -1.384a30.032 30.032 0 0 1 25.534 0h-25.534Z" stroke-width="1"></path><path id="vector_71" fill="#000000" d="M389.574 351.78c-9.352 -6.1 -22.388 -5.548 -31.8 0.106a0.76 0.76 0 0 0 -0.094 1.192 0.76 0.76 0 0 0 0.412 0.19h30.96c1.206 0 1.032 -1.488 0.522 -1.488Zm-28.512 -0.108a30.034 30.034 0 0 1 25.534 0h-25.534Z" stroke-width="1"></path><path id="vector_72" fill="#000000" d="M324.676 249.112a5.42 5.42 0 0 0 5.946 3.006 5.428 5.428 0 0 0 4.374 -5.026 5.97 5.97 0 0 0 -2.872 -5.214 5.432 5.432 0 0 0 -7.448 7.234Zm1.49 -4.68a4.236 4.236 0 0 1 4.68 -1.49 4.36 4.36 0 0 1 2.66 3.51 3.88 3.88 0 0 1 -2.548 4.11 3.894 3.894 0 0 1 -4.58 -1.556 4.056 4.056 0 0 1 -0.212 -4.574Z" stroke-width="1"></path><path id="vector_73" fill="#000000" d="M327.656 239.644a22.2 22.2 0 0 0 11.064 -4.468c1.27 -1.074 2.128 -2.874 0.426 -4.044a4.2 4.2 0 0 0 -3.4 -0.426 8.414 8.414 0 0 0 -3.19 1.49 22.084 22.084 0 0 0 -5.534 6.384 0.694 0.694 0 0 0 -0.1 0.36 0.68 0.68 0 0 0 0.098 0.362 0.704 0.704 0 0 0 0.636 0.342Zm4.68 -5.426c4.554 -3.902 8.132 -2.108 5.452 0.028a23.298 23.298 0 0 1 -8.536 3.696 24.88 24.88 0 0 1 3.084 -3.724Z" stroke-width="1"></path><path id="vector_74" fill="#000000" d="M360.85 282.094c-0.556 -2.59 -5.64 -1.266 -5.64 1.6 -0.106 1.488 1.702 1.702 2.874 1.488 1.276 -0.322 3.084 -1.492 2.766 -3.088Zm-3.2 1.8c-1.11 0.37 -1.4 -0.146 -0.786 -0.904 0.57 -0.696 1.8 -1.046 2.168 -0.8 0.54 0.01 0.708 0.88 -1.374 1.712l-0.008 -0.008Z" stroke-width="1"></path><path id="vector_75" fill="#000000" d="M346.8 294.328c-0.536 -0.742 -1.812 0 -1.278 0.746 0.846 1.174 1.6 2.336 2.448 3.51 0.534 0.742 1.812 0 1.276 -0.744 -0.846 -1.174 -1.594 -2.338 -2.446 -3.512Z" stroke-width="1"></path><path id="vector_76" fill="#000000" d="M370.956 298.158c0.426 0.852 1.72 0.098 1.276 -0.744a41.206 41.206 0 0 0 -1.6 -2.766c-0.424 -0.852 -1.72 -0.098 -1.276 0.744 0.516 0.97 1.068 1.916 1.6 2.766Z" stroke-width="1"></path><path id="vector_77" fill="#000000" d="M376.702 295.924a18.064 18.064 0 0 0 -7.91 -6.982l8.548 -17.168a0.706 0.706 0 0 0 0.088 -0.36 0.706 0.706 0 0 0 -0.368 -0.612 0.698 0.698 0 0 0 -0.358 -0.092h-25.624a54.906 54.906 0 0 0 -24.486 -11.278 36.88 36.88 0 0 0 -18.626 2.46 33.366 33.366 0 0 0 -16.278 12.234c-7.65 10.456 -13.486 28.628 -5.318 38.832a33.064 33.064 0 0 0 0.638 10.746c2.178 10.888 7.968 21.126 19.044 21.916 21.108 0 -24.756 -0.012 73.096 -0.012a0.804 0.804 0 0 0 0.746 -0.532c2.408 -13.57 4.154 -37.996 -3.192 -49.152Zm-1.278 -23.724c-1.276 2.552 -6.626 13.45 -8.068 16.248 -0.626 -0.096 -1.012 -0.2 -1.4 -0.29 -5.614 -1.284 -10.958 1.6 -15.534 4.68a11.612 11.612 0 0 0 -4.362 -3.51 12.856 12.856 0 0 0 -3.878 -0.966c2.214 -4.432 7.6 -15.312 8.028 -16.162h25.214Zm-43.3 -10c1.066 1.584 1.99 3.256 2.766 5a2.78 2.78 0 0 1 0 2.554 2.56 2.56 0 0 1 -2.022 1.17 4.934 4.934 0 0 1 -3.4 -1.8 85.71 85.71 0 0 1 -7.128 -8.512c3.312 0.15 6.594 0.682 9.784 1.588Zm-25.108 81.92c-8.936 -0.102 -14.324 -6.66 -17.136 -15.096a36.724 36.724 0 0 1 -2.31 -14.544c4.588 4.958 12.968 5.914 19.864 1.776a0.74 0.74 0 0 0 -0.744 -1.276 15.384 15.384 0 0 1 -15.96 0.32 17.124 17.124 0 0 1 -5.212 -6.384c-4.966 -10.484 1.908 -34.682 18.618 -43.834a42.958 42.958 0 0 1 15.652 -4.664 344.154 344.154 0 0 0 9.046 9.752c1.416 1.464 1.78 2.136 4.354 2.136a3.934 3.934 0 0 0 3.2 -2.448 6.314 6.314 0 0 0 -0.958 -4.786 26.786 26.786 0 0 0 -1.162 -2.088 51.494 51.494 0 0 1 14.826 8c-0.068 0.128 -2.566 5.2 -4.836 9.816a0.47 0.47 0 0 0 -0.264 -0.074c-17.898 -1.16 -33.904 4.328 -41.706 10 -0.744 0.532 0 1.8 0.746 1.276 11.516 -7.858 26.836 -10.672 40.534 -9.8 -1.6 3.262 -2.942 5.984 -2.98 6.064a26.182 26.182 0 0 0 -16.436 5.214c-9.256 6.914 -14.682 18.2 -16.6 29.364a83.64 83.64 0 0 0 -0.536 21.276Zm71.28 0h-24.458a143.312 143.312 0 0 0 0.84 -40.536 16.96 16.96 0 0 0 -2.622 -8.294c-0.518 -0.756 -1.81 0 -1.278 0.746a13.896 13.896 0 0 1 2.4 7.122 153.8 153.8 0 0 1 0.532 29.896c-0.182 2.132 -0.928 9.058 -1.266 11.066h-27.022c0 -13.306 0.63 -22.2 1.6 -33.302 0.108 -0.956 -1.382 -0.956 -1.488 0 -1.102 12.916 -1.586 24.464 -1.6 33.302h-15.64c-1.064 -12.022 -0.318 -24.684 5.214 -35.536 4.574 -8.83 12.234 -17.234 22.554 -18.724a19.36 19.36 0 0 1 8.2 0.32 10.84 10.84 0 0 1 5.426 4.042c0.212 0.212 0.532 0.426 0.852 0.106 3.936 -2.766 8.616 -5.532 13.616 -5.106a15.678 15.678 0 0 1 10.64 6.8 30.224 30.224 0 0 1 4.682 13.726 114.664 114.664 0 0 1 -1.182 34.372Z" stroke-width="1"></path><path id="vector_78" fill="#000000" d="M374.042 236.558c-3.086 4.894 -10.214 16.066 -10.746 16.81 -0.532 0.744 0.744 1.49 1.276 0.744 3.086 -4.894 10.214 -16.064 10.746 -16.8a0.748 0.748 0 0 0 0.08 -0.562 0.746 0.746 0 0 0 -0.902 -0.532 0.736 0.736 0 0 0 -0.454 0.34Z" stroke-width="1"></path><path id="vector_79" fill="#000000" d="M367.764 255.816c-0.85 0.424 -0.106 1.6 0.746 1.276 14.9 -7.284 15.642 -7.6 16.384 -8.086 0.85 -0.426 0.106 -1.6 -0.746 -1.276 -21.122 10.326 -14.56 7.304 -16.384 8.086Z" stroke-width="1"></path></g></g></g></svg>