<svg xmlns="http://www.w3.org/2000/svg" fill="none" viewBox="0 0 400 400" id="Asking-A-Question--Streamline-New-York" height="400" width="400"><desc>Asking A Question Streamline Illustration: https://streamlinehq.com</desc><path fill="#000000" d="M154.296 193.3484c-3.076 4.266 -8.77 2.76 -9.444 -3.2 -4.2902 1.0592 -8.0652 3.6072 -10.652 7.19 -0.746 1.128 -0.674 1.846 -1.11 2.022 -0.468 0.0544 -0.942 0.0252 -1.4 -0.086 -7.2 -0.42 -12.382 5.1096 -11.2 11.3656 -1.9172 0.49 -3.6104 1.62 -4.8 3.2 -1.0772 1.356 -1.8912 2.902 -2.4 4.558 0.536 -0.028 17.65 -0.9 20.812 -1.096 -0.038 -1.664 -0.066 -3.326 -0.06 -5 -0.21 -2.834 1.044 -5.85 3.926 -5.854 0.6488 0.046 1.279 0.238 1.8434 0.562 0.5644 0.324 1.0486 0.77 1.4166 1.306 0.8058 1.224 1.3944 2.576 1.74 4 0.472 1.424 0.9434 2.846 1.414 4.266 2.016 -0.158 9.774 -0.828 14.428 -1.342 0.1284 -7.54 -1.413 -15.016 -4.514 -21.8916ZM141.8 204.106c-0.6006 -0.674 -0.9788 -1.518 -1.0828 -2.416 -0.1042 -0.898 0.0708 -1.8066 0.5008 -2.6016 0.4406 -0.7104 1.061 -1.2918 1.7986 -1.6852 0.7376 -0.3934 1.566 -0.5846 2.4014 -0.5548 0.0622 0.0302 0.1324 0.0392 0.2 0.026 0.987 0.1896 1.8836 0.7 2.5502 1.452 0.6668 0.7522 1.066 1.7036 1.1358 2.7056 0.0028 0.872 -0.2544 1.722 -0.7384 2.446 -0.484 0.724 -1.173 1.288 -1.9788 1.618 -0.8056 0.33 -1.6916 0.412 -2.5444 0.236 -0.8526 -0.176 -1.6334 -0.604 -2.2424 -1.226Z" stroke-width="1"></path><path fill="#000000" d="M259.686 209.344c-0.042 0.19 -0.008 0.388 0.092 0.554 0.102 0.166 0.262 0.286 0.448 0.338 0.188 0.05 0.388 0.028 0.558 -0.064 0.172 -0.09 0.3 -0.244 0.362 -0.428 2.87 -10.4374 2.228 -21.529 -1.83 -31.5644 -0.36 -0.894 -1.822 -0.504 -1.46 0.4 3.036 7.5736 4.126 15.787 3.17 23.8904 -0.294 2.318 -0.742 4.614 -1.34 6.874Z" stroke-width="1"></path><path fill="#000000" d="M267.066 208.93c-0.228 0.946 1.232 1.35 1.46 0.4 2.544 -10.5468 1.732 -21.6238 -2.326 -31.685 -0.36 -0.892 -1.824 -0.502 -1.458 0.4 3.98 9.7996 4.792 20.5992 2.324 30.885Z" stroke-width="1"></path><path fill="#000000" d="M66.88 123.2266c-0.732 -0.636 -1.8 0.43 -1.07 1.07l23.846 20.746c0.732 0.636 1.8 -0.43 1.07 -1.07 -1.214 -1.056 -22.632 -19.692 -23.846 -20.746Z" stroke-width="1"></path><path fill="#000000" d="M55.316 150.211c-0.194 0.01 -0.3768 0.094 -0.5106 0.2348 -0.1338 0.141 -0.2084 0.3278 -0.2084 0.5222 0 0.1942 0.0746 0.3812 0.2084 0.522 0.1338 0.1408 0.3166 0.225 0.5106 0.235h34.168c0.194 -0.01 0.3768 -0.0942 0.5106 -0.235 0.1338 -0.1408 0.2084 -0.3278 0.2084 -0.522 0 -0.1944 -0.0746 -0.3812 -0.2084 -0.5222 -0.1338 -0.1408 -0.3166 -0.2248 -0.5106 -0.2348H55.316Z" stroke-width="1"></path><path fill="#000000" d="M89.866 159.584c0.8 -0.54 0.048 -1.85 -0.764 -1.306l-23.138 15.536c-0.8 0.54 -0.048 1.852 0.764 1.306l23.138 -15.536Z" stroke-width="1"></path><path fill="#000000" d="M10.16 253.326c-0.02 0.058 -0.134 -0.124 -0.26 1.314 -0.316 3.624 -0.7 17.524 0.226 71.4 0.00998 0.194 0.09408 0.378 0.23496 0.51 0.14086 0.134 0.32774 0.21 0.52204 0.21 0.1943 0 0.38118 -0.076 0.52204 -0.21 0.14088 -0.132 0.22498 -0.316 0.23496 -0.51v-71.03c-1.3 -1.306 -1.426 -1.35 -1.48 -1.684Z" stroke-width="1"></path><g><path fill="#000000" d="M149.434 201.032c-0.0316 -0.974 -0.382 -1.9088 -0.997 -2.6634 -0.6152 -0.7546 -1.461 -1.2864 -2.4076 -1.5134 -0.9466 -0.2272 -1.9418 -0.1374 -2.8322 0.256 -0.8906 0.3932 -1.6274 1.068 -2.0972 1.9208 -0.3344 0.5998 -0.5252 1.268 -0.5578 1.954 -0.0326 0.686 0.094 1.372 0.3698 2 0.2758 0.628 0.6936 1.186 1.2204 1.626 0.5268 0.44 1.1484 0.754 1.8162 0.914 0.6678 0.16 1.3636 0.164 2.033 0.01s1.2942 -0.46 1.8254 -0.896c0.5314 -0.434 0.9546 -0.986 1.237 -1.612 0.2822 -0.626 0.4156 -1.31 0.39 -1.996Zm-7.118 -0.35v-0.022c0.1848 -0.646 0.581 -1.2104 1.1248 -1.6042 0.544 -0.3938 1.2042 -0.5938 1.8752 -0.5678 0.7088 0.1342 1.3422 0.5274 1.777 1.103 0.4348 0.575 0.6398 1.293 0.575 2.011 -0.1454 0.682 -0.5338 1.288 -1.0928 1.704 -0.5592 0.416 -1.2504 0.614 -1.9452 0.558 -0.3608 -0.058 -0.707 -0.184 -1.0186 -0.376 -0.3116 -0.19 -0.5826 -0.44 -0.7974 -0.736 -0.215 -0.296 -0.3694 -0.63 -0.455 -0.986 -0.0854 -0.354 -0.1 -0.724 -0.043 -1.084Z" stroke-width="1"></path><path fill="#000000" d="M61.568 326.276c0.902 -2.438 7.682 -20.8 8.016 -21.708 0.4 -1.068 -1.312 -1.528 -1.702 -0.468l-8.016 21.7c-0.394 1.074 1.312 1.534 1.702 0.476Z" stroke-width="1"></path><path fill="#000000" d="m187.858 304.78 10.814 21.706c0.506 1.018 2.028 0.124 1.524 -0.89 -2.474 -4.964 -6.536 -13.124 -10.812 -21.708 -0.506 -1.016 -2.03 -0.124 -1.526 0.892Z" stroke-width="1"></path><path fill="#000000" d="M136.22 326.486c0.0584 0.1 0.136 0.188 0.2284 0.258 0.0922 0.07 0.1974 0.122 0.3094 0.152 0.1122 0.028 0.229 0.036 0.3438 0.02 0.1148 -0.016 0.2254 -0.054 0.3254 -0.112 0.1 -0.058 0.1876 -0.136 0.2578 -0.228 0.07 -0.092 0.1212 -0.198 0.1508 -0.31 0.0294 -0.112 0.0364 -0.228 0.0208 -0.344 -0.0158 -0.114 -0.054 -0.226 -0.1124 -0.326 -5.648 -10.238 -7.486 -13.504 -8.042 -14.44 -0.534 -0.898 -1.488 -1.04 -1.886 -0.038 -0.398 1.002 -1.422 4.176 -4.962 14.688 -0.364 1.08 1.34 1.542 1.702 0.47 1.4374 -4.266 2.8766 -8.538 4.318 -12.818 1.82 3.23 6.692 11.942 7.346 13.028Z" stroke-width="1"></path><path fill="#000000" d="M245.314 176.5996c-4.406 -10.4672 -11.758 -19.43 -21.16 -25.8 -21.858 -13.038 -46.112 -7.378 -70.254 0.834 -0.3524 0.0874 -0.6948 0.2108 -1.022 0.368 -0.228 -0.092 -2.04 -0.73 -4.576 -1.762 -3.3318 -1.3972 -6.7788 -2.5022 -10.302 -3.302 -0.9334 -0.2284 -1.9056 -0.2496 -2.848 -0.0624 -0.9426 0.1872 -1.8328 0.5786 -2.608 1.1464 -0.7856 0.7972 -1.2958 1.8246 -1.4566 2.9324 -0.1608 1.1076 0.0362 2.2378 0.5626 3.2256 1.3078 2.1694 3.2942 3.8474 5.652 4.774 2.755 1.3016 5.6136 2.372 8.546 3.2 -4.0372 1.7174 -7.9384 3.7386 -11.67 6.046 -1.3262 0.7396 -2.5326 1.6764 -3.578 2.778 -3.318 3.632 -1.578 8.894 2.93 8.712 4.461 -0.2014 8.8414 -1.26 12.902 -3.118 -1.2956 4.3746 -1.8724 8.9304 -1.708 13.49 -4.324 1.284 -9.222 4.102 -11.114 8.114 -0.134 0.288 -0.268 0.94 -0.552 1.076 -0.284 0.136 -1.038 -0.086 -1.35 -0.104 -7.352 -0.426 -12.424 5.2184 -11.354 11.4004 -1.8868 0.516 -3.5508 1.642 -4.734 3.2 -1.072 1.348 -1.8856 2.884 -2.4 4.528 -3.4744 0.134 -6.9388 0.46 -10.378 0.972 -5.9916 0.604 -11.8738 2.016 -17.486 4.2 -10.74 4.366 -17.044 13.572 -17.352 20.968 -0.064 0.23 0.284 15.986 0 57.57 0 0.986 1.118 0.956 1.322 0.974 4.11 0.334 23.982 0.576 118.732 -0.092 0.2332 -0.004 0.456 -0.096 0.6208 -0.262 0.1648 -0.164 0.2586 -0.388 0.2612 -0.62 0 -12.892 0.47 -45.164 0.476 -48.412 14.442 -2.296 28.508 -6.214 39.944 -15.148 9.1 -7.108 15.596 -17.022 18.482 -28.202 2.884 -11.181 1.996 -23.0012 -2.528 -33.6244ZM121.466 212.2c0.117 -0.002 0.2328 -0.024 0.3406 -0.07 0.1078 -0.046 0.2056 -0.112 0.2876 -0.196 0.082 -0.084 0.1466 -0.182 0.1902 -0.29 0.0436 -0.11 0.0652 -0.226 0.0636 -0.342 -0.3628 -1.158 -0.454 -2.384 -0.2662 -3.582 0.1876 -1.198 0.649 -2.338 1.3482 -3.328 0.9668 -1.214 2.22 -2.166 3.647 -2.774 1.427 -0.608 2.9826 -0.852 4.527 -0.708 0.6374 0.112 1.2884 0.126 1.93 0.04 1.244 -0.33 1.436 -1.7644 2.044 -2.7164 2.3552 -3.1388 5.6944 -5.3978 9.484 -6.416 1.146 3.778 5.114 5.446 8.09 2.938 2.7738 6.4924 4.1472 13.4984 4.03 20.5584 -5.132 0.54 -9.612 0.898 -12.688 1.136l-1.38 -4.166c-0.3512 -1.432 -0.9436 -2.792 -1.752 -4.024 -0.3786 -0.554 -0.8776 -1.016 -1.4598 -1.35 -0.5822 -0.336 -1.2326 -0.534 -1.9022 -0.58 -2.972 0 -4.262 3.098 -4.052 5.978 0 1.624 0.022 3.248 0.058 4.87 -3.12 0.2 -15.72 0.838 -18.896 1 0.956 -2.714 3.546 -6 6.356 -5.978ZM167.6 187.3216c1.0086 0.5716 2.191 0.7556 3.3256 0.5174 1.1344 -0.2384 2.143 -0.8824 2.8364 -1.8114 1.63 -2.24 0.918 -5.138 0.418 -7.64 -0.46 -2.296 -0.916 -4.5928 -1.368 -6.89 6.191 -0.3736 12.3916 0.557 18.2 2.732 3.3446 1.0926 6.3514 3.0284 8.7306 5.6206 2.3794 2.5922 4.0514 5.7536 4.8534 9.1794 2.388 10.156 -3.6 14.6144 -3.866 15.0544 0.032 -0.05 0.068 -0.098 0.11 -0.14 -6.424 6.23 -26.522 9.488 -41.846 11.178 0.0832 -7.5 -1.4724 -14.926 -4.558 -21.7624 2.528 -3.564 1.6 -10.75 7.25 -17.626 1.844 4.958 2.014 9.742 5.914 11.588Zm-4.56 -12.948c0.9878 -0.8984 2.1588 -1.572 3.432 -1.974 1.4918 -0.4204 3.0234 -0.6838 4.57 -0.786 0.38 1.916 0.7606 3.8326 1.142 5.75 0.6866 2.0694 0.916 4.2632 0.672 6.43 -0.0864 0.4712 -0.2866 0.9142 -0.5832 1.2902 -0.2968 0.3762 -0.681 0.674 -1.119 0.8676 -0.4382 0.1938 -0.9172 0.2772 -1.395 0.2434s-0.9402 -0.1838 -1.3468 -0.4372c-0.8922 -0.5666 -1.6536 -1.3166 -2.2336 -2.2 -0.58 -0.8834 -0.9652 -1.8802 -1.1304 -2.924 -0.548 -2.1238 -1.2184 -4.214 -2.008 -6.26Zm-6.658 59.6824c4.8566 -1.89 9.9644 -3.056 15.16 -3.46 0.6068 -0.188 1.2618 -0.14 1.8346 0.134 0.573 0.274 1.0214 0.754 1.2562 1.344 0.2346 0.59 0.2384 1.246 0.0102 1.84 -0.228 0.592 -0.6712 1.078 -1.241 1.358 -1.0078 0.762 -2.1104 1.388 -3.28 1.866 -11 4.642 -9.672 2.972 -10.2 5.634 -2.66 13.546 -6.304 33.4 -11.3 45.036 -1.352 3.324 -4.15 8.19 -7.766 9.038 -2.626 0.61 -8.426 -0.694 -11.4 -1.61 -10.26 -3.1 -20.15 -8.826 -29.152 -14.638l19.022 -30.68c3.268 1.608 6.5046 3.274 9.71 5 0.1172 0.066 0.2478 0.104 0.3822 0.112 0.1342 0.008 0.2686 -0.014 0.3932 -0.064 0.1246 -0.05 0.236 -0.128 0.3262 -0.228s0.1566 -0.22 0.1944 -0.348c1.828 -5.56 3.758 -9.182 5 -14.8 0.414 -2.17 -2.92 -4.648 -4.746 -5.9 -1.71 -1.172 -4.4 -3.514 -3.026 -5.896 0.132 -0.238 0.3116 -0.446 0.5278 -0.612 0.216 -0.164 0.464 -0.284 0.7282 -0.348 0.7032 -0.016 1.3926 0.196 1.968 0.6 1.4 0.716 2.876 1.386 4.224 2.19 0.1344 0.076 0.2864 0.116 0.4412 0.116 0.1546 0 0.3066 -0.04 0.4408 -0.118 0.1342 -0.076 0.246 -0.188 0.3242 -0.32 0.0782 -0.134 0.1202 -0.286 0.1218 -0.44 -0.362 -4.788 -0.8 -14.366 -0.588 -17.882 -0.011 -0.558 0.127 -1.11 0.3998 -1.598 0.2728 -0.486 0.6706 -0.892 1.1522 -1.174 1.082 -0.436 2.218 0.442 2.78 1.3 0.8 1.422 0.276 0.052 6.108 17.692 0.16 0.478 0.818 0.896 1.298 0.526 3.58 -2.75 8.912 -7.078 13.584 -8.934 2.022 -0.726 4.99 -0.8 5.164 2 0.294 4.672 -7.244 9.036 -10.714 11.8 -0.676 0.53 0.06 1.776 0.862 1.464ZM69.764 245.6c0 -7.336 4.982 -13.736 10.874 -17.648 4.9028 -3.036 10.3598 -5.066 16.054 -5.972 11.694 -2.252 16.184 -1.724 37.368 -3.048 0.0854 2.8 0.2246 5.592 0.418 8.38 -0.858 -0.444 -1.732 -0.866 -2.58 -1.302 -0.574 -0.414 -1.2334 -0.694 -1.9298 -0.82 -0.6964 -0.124 -1.412 -0.092 -2.0942 0.096 -0.5664 0.286 -1.0648 0.692 -1.4616 1.186 -0.397 0.496 -0.6834 1.07 -0.8398 1.686 -0.1566 0.616 -0.1796 1.258 -0.0676 1.882 0.1122 0.626 0.3566 1.218 0.717 1.742 1.846 3.212 7.874 5.39 7.288 7.9 -0.966 4.2 -3 8.838 -4.518 13.22 -8.2032 -4.412 -16.6262 -8.402 -25.236 -11.954 -0.2256 -0.062 -0.4662 -0.03 -0.6696 0.084 -0.2032 0.116 -0.3528 0.306 -0.4164 0.532 -0.0572 0.226 -0.025 0.464 0.0898 0.666 0.1148 0.202 0.3032 0.352 0.5262 0.42 4.88 2.02 9.6966 4.184 14.45 6.494l-18.906 30.492c-5.264 -3.452 -10.472 -7.064 -15.37 -11.018 -15.646 -12.632 -13.49 -22.486 -13.696 -23.018Zm118.542 6.386c-0.186 0.052 -0.35 0.162 -0.467 0.316 -0.117 0.152 -0.1806 0.34 -0.181 0.534 0 12.892 -0.47 45.072 -0.474 48.272h-117.4l0 -46.49c3.766 8.926 11.11 14.492 19.026 20.228 12.552 9.1 34.332 23.172 49.914 23.882 5.46 0.4 8.572 -3.986 10.93 -8.91 2.6522 -5.972 4.6862 -12.2 6.07 -18.586 2.272 -9.224 4.144 -18.918 6.104 -28.908 7.154 -3.014 15.638 -4.838 14.672 -10.218 -0.223 -0.772 -0.6538 -1.468 -1.2452 -2.01 -0.5916 -0.544 -1.321 -0.914 -2.1088 -1.07 -1.9162 -0.322 -3.8786 -0.242 -5.762 0.236 -7.624 1.214 -7.278 2.48 -4.262 -0.242 2.274 -2.05 4.726 -4.544 4.904 -7.8 0.051 -0.744 -0.0858 -1.49 -0.3974 -2.168 -0.3116 -0.678 -0.7884 -1.266 -1.3866 -1.712 -3.4 -2.082 -7.69 0.48 -11.096 2.624 -2.664 1.68 -5.146 3.622 -7.636 5.546 -0.808 -2.444 -1.6174 -4.888 -2.428 -7.332 13.064 -1.03 46.364 -3.928 56.296 -12.35l26.104 31.82c-11.456 8.496 -25.2 12.162 -39.176 14.338Zm14.322 -47.4c1.71 -1.798 2.968 -3.976 3.674 -6.3536 0.704 -2.3784 0.836 -4.89 0.382 -7.3288 -1.576 -12.498 -11.44 -18.724 -23.742 -20.628 -5.6712 -0.976 -11.4798 -0.819 -17.09 0.462 -4.288 1.3 -7.6 5.914 -9.126 9.916 -3.062 8.2 -1.884 9.528 -4.258 12.342 -0.417 0.5018 -0.9774 0.8644 -1.6062 1.0388s-1.2958 0.1526 -1.9118 -0.0628c-2.84 -1.228 -2.67 -5.028 -2.49 -7.568 0.28 -3.8222 1.024 -7.5958 2.216 -11.238 0.0418 -0.1686 0.0336 -0.3456 -0.0234 -0.5094 -0.0572 -0.164 -0.1608 -0.3078 -0.2982 -0.4138 -0.1374 -0.106 -0.3026 -0.1698 -0.4758 -0.1834 -0.173 -0.0136 -0.3462 0.0234 -0.4986 0.1066 -3.7366 1.9078 -7.7818 3.1382 -11.948 3.634 -1.2574 0.323 -2.588 0.2016 -3.766 -0.344 -0.345 -0.3774 -0.6098 -0.8208 -0.7784 -1.3034 -0.1686 -0.4824 -0.2378 -0.9942 -0.203 -1.5042s0.1728 -1.0078 0.4054 -1.463c0.2326 -0.4552 0.555 -0.8584 0.948 -1.1854 0.9372 -0.9058 1.9832 -1.6918 3.114 -2.34 4.3114 -2.6918 8.8716 -4.9622 13.618 -6.78 0.1812 -0.057 0.3394 -0.1702 0.4518 -0.3232 0.1122 -0.1532 0.1728 -0.338 0.1728 -0.5278 0 -0.19 -0.0606 -0.3748 -0.1728 -0.528 -0.1124 -0.153 -0.2706 -0.2662 -0.4518 -0.323 -2.442 -0.672 -4.844 -1.484 -7.232 -2.328 -2.3318 -0.7654 -4.5296 -1.8902 -6.514 -3.334 -0.8916 -0.551 -1.5666 -1.3922 -1.9116 -2.382 -0.3448 -0.9898 -0.3386 -2.0682 0.0176 -3.054 0.2928 -0.4702 0.7006 -0.8578 1.185 -1.1262 0.4844 -0.2684 1.0292 -0.4088 1.583 -0.4078 0.508 -0.045 1.0198 -0.023 1.522 0.066 6.854 1.432 12.23 4.272 15.176 5.146 0.5834 0.0148 1.1604 -0.1232 1.674 -0.4 11.0172 -4.0598 22.4718 -6.8152 34.13 -8.21 10.8674 -1.314 21.882 0.5624 31.702 5.4 10.74 5.43 19.102 16.164 23.688 26.926 4.272 10.1326 5.126 21.3814 2.432 32.0424 -2.694 10.662 -8.79 20.154 -17.362 27.042l-26.232 -31.972Z" stroke-width="1"></path><path fill="#000000" d="M260.218 210.374c0.218 0.054 0.45 0.022 0.644 -0.09 0.196 -0.112 0.342 -0.294 0.406 -0.51 2.87 -10.459 2.228 -21.572 -1.83 -31.6312 -0.068 -0.2222 -0.218 -0.4102 -0.42 -0.5248 -0.202 -0.1148 -0.44 -0.1474 -0.666 -0.0912 -0.112 0.0306 -0.216 0.083 -0.308 0.1542s-0.168 0.1596 -0.226 0.2606c-0.058 0.1008 -0.094 0.2122 -0.11 0.3274 -0.014 0.1152 -0.004 0.232 0.026 0.3438 3.92 9.762 4.562 20.5336 1.83 30.6912 -0.028 0.114 -0.034 0.232 -0.016 0.348 0.018 0.114 0.058 0.224 0.12 0.324 0.06 0.1 0.14 0.186 0.234 0.254 0.096 0.07 0.202 0.118 0.316 0.144Z" stroke-width="1"></path><path fill="#000000" d="M265.234 177c-0.226 0.0626 -0.418 0.212 -0.532 0.4156 -0.116 0.2036 -0.146 0.4446 -0.084 0.6704 3.968 9.778 4.78 20.5512 2.326 30.814 -0.266 1.104 1.436 1.574 1.704 0.47 2.546 -10.5692 1.732 -21.669 -2.328 -31.754 -0.068 -0.2228 -0.218 -0.411 -0.42 -0.5256 -0.202 -0.1148 -0.44 -0.1472 -0.666 -0.0904Z" stroke-width="1"></path><path fill="#000000" d="M90.816 143.882 66.97 123.136c-0.854 -0.742 -2.108 0.502 -1.248 1.25l23.846 20.746c0.854 0.742 2.108 -0.502 1.248 -1.25Z" stroke-width="1"></path><path fill="#000000" d="M242.058 200.706c0.224 -0.008 0.436 -0.1 0.592 -0.26 0.158 -0.158 0.25 -0.37 0.258 -0.5932v-7.9242c-0.008 -0.2342 -0.11 -0.4554 -0.282 -0.6152 -0.172 -0.1596 -0.4 -0.2448 -0.634 -0.2366 -0.224 0.006 -0.438 0.0976 -0.596 0.2562 -0.158 0.1584 -0.25 0.3716 -0.256 0.5956 -0.044 2.6414 -0.044 5.2828 0 7.9242 0.004 0.1166 0.03 0.2312 0.078 0.3372 0.048 0.108 0.116 0.202 0.202 0.282 0.086 0.08 0.186 0.142 0.296 0.182 0.108 0.04 0.226 0.058 0.342 0.052Z" stroke-width="1"></path><path fill="#000000" d="M89.484 150.084H55.316c-0.2268 0.0108 -0.441 0.1086 -0.5978 0.273 -0.1566 0.1644 -0.2442 0.3828 -0.2442 0.61s0.0876 0.4456 0.2442 0.61c0.1568 0.1644 0.371 0.2622 0.5978 0.273h34.168c0.227 -0.0108 0.441 -0.1086 0.5978 -0.273 0.1568 -0.1644 0.2442 -0.3828 0.2442 -0.61s-0.0874 -0.4456 -0.2442 -0.61 -0.3708 -0.2622 -0.5978 -0.273Z" stroke-width="1"></path><path fill="#000000" d="m89.038 158.1692 -23.138 15.536c-0.938 0.63 -0.056 2.16 0.892 1.524l23.138 -15.536c0.938 -0.63 0.054 -2.16 -0.892 -1.524Z" stroke-width="1"></path><path fill="#000000" d="m157.054 169.4542 -3.83 1.482c-1.048 0.4 -0.6 2.114 0.47 1.704l3.83 -1.484c1.048 -0.406 0.592 -2.114 -0.47 -1.702Z" stroke-width="1"></path><path fill="#000000" d="m157.8 160.1992 -4.494 0.532c-0.2326 0.005 -0.4542 0.0996 -0.6188 0.2638 -0.1646 0.1644 -0.2596 0.3858 -0.2652 0.6182 -0.0002 0.1162 0.0224 0.2312 0.0668 0.3386 0.0442 0.1074 0.1094 0.205 0.1916 0.287 0.082 0.0822 0.1796 0.1474 0.287 0.1916 0.1074 0.0444 0.2224 0.067 0.3386 0.0668l4.494 -0.538c0.2324 -0.0056 0.4536 -0.1002 0.6182 -0.2644 0.1646 -0.1642 0.2598 -0.3852 0.2658 -0.6176 -0.0016 -0.2334 -0.0954 -0.4568 -0.261 -0.6212 -0.1656 -0.1644 -0.3896 -0.2568 -0.623 -0.2568Z" stroke-width="1"></path><path fill="#000000" d="M388.954 128.51c-7.6 -40.668 -51.568 -65.096 -95.696 -51.828 -27.51 8.184 -50.422 29.708 -56.6 58.8 -0.772 3.6254 -0.778 7.372 -0.018 11 0.052 0.1856 0.164 0.3492 0.316 0.4662 0.154 0.1168 0.342 0.1806 0.534 0.1818h42.388c0.192 -0.0022 0.38 -0.0666 0.534 -0.1832 0.152 -0.1168 0.264 -0.2796 0.318 -0.4648 6.028 -26.186 33.864 -34.614 53.832 -23.238 7.6 4.4 12.38 13.182 9.18 21.692 -1.85 4.2182 -4.606 7.9778 -8.072 11.012 -9.098 8.732 -20.474 14.352 -32.928 32.528 -8.476 12.71 -11.462 25.836 -10.652 35.816 0.006 0.232 0.1 0.454 0.266 0.618 0.164 0.166 0.386 0.26 0.618 0.266H336.6c0.234 -0.002 0.458 -0.096 0.622 -0.262 0.166 -0.164 0.26 -0.388 0.262 -0.622 -0.046 -1.488 0.056 -2.976 0.3 -4.444 1.106 -4.332 3.372 -8.28 6.558 -11.416 11.06 -11.55 31.924 -24.6 40.726 -44.76 4.764 -11.073 6.118 -23.3158 3.886 -35.162ZM335.722 223.4H293.8c-0.26 -11.274 2.888 -22.366 9.034 -31.822 12.122 -19 23.734 -24.746 33.324 -33.676 7.4 -6.896 12.69 -14.724 9.4 -24.21 -4.616 -12.874 -20.054 -18.232 -33.72 -16.92 -15.558 1.49 -28.388 11.778 -32.632 28.582H238.22c-0.584 -3.4034 -0.474 -6.8894 0.318 -10.25 5.76 -25.736 25.14 -45.716 49.538 -54.822 41.884 -15.788 85.626 3.974 97.412 41.514 2.74 8.5532 3.468 17.6236 2.126 26.5042 -1.34 8.8806 -4.712 17.332 -9.854 24.6958 -17.776 24.46 -42.178 32.282 -42.038 50.404Z" stroke-width="1"></path><path fill="#000000" d="M357.704 324.524v-87.636c-0.002 -0.234 -0.096 -0.456 -0.262 -0.62 -0.164 -0.166 -0.386 -0.26 -0.62 -0.262h-87.634c-0.234 0.002 -0.456 0.096 -0.62 0.262 -0.166 0.164 -0.26 0.386 -0.264 0.62v87.636c0.004 0.234 0.098 0.456 0.262 0.62 0.166 0.166 0.388 0.26 0.622 0.264h87.634c0.232 -0.004 0.456 -0.098 0.62 -0.264 0.164 -0.164 0.258 -0.388 0.262 -0.62Zm-1.77 -0.882s-84.984 -0.036 -85.864 -0.016c0 0 0.036 -84.964 0.014 -85.854 0 0 84.966 0.034 85.856 0.014 0 64.814 -0.018 84.32 -0.006 85.856Z" stroke-width="1"></path><path fill="#000000" d="M10 326.04c0.0108 0.228 0.10854 0.442 0.27296 0.598 0.1644 0.158 0.38286 0.244 0.61004 0.244 0.22716 0 0.44562 -0.086 0.61004 -0.244 0.1644 -0.156 0.26216 -0.37 0.27296 -0.598v-70.724c16.366 16.45 15.612 15.744 15.812 15.878 0.1228 0.106 0.2726 0.176 0.4324 0.202 0.16 0.024 0.324 0.006 0.4736 -0.056s0.2788 -0.166 0.3736 -0.298c0.0946 -0.13 0.1508 -0.286 0.1624 -0.448 0.046 -0.222 -0.042 -25.382 -0.042 -34.146 -0.0048 -0.172 -0.0594 -0.338 -0.1572 -0.48 -0.0976 -0.142 -0.2342 -0.254 -0.3932 -0.32 -0.1592 -0.066 -0.334 -0.084 -0.5036 -0.054 -0.1694 0.032 -0.3264 0.11 -0.452 0.228l-17.214 16.728c-0.128 0.146 -0.582 -0.218 -0.528 1.706 0.124 4.398 -0.684 18.808 0.27 71.784Zm17.216 -87.506c0 8.19 0.048 28.096 0.048 29.86l-15.126 -15.2 15.078 -14.66Z" stroke-width="1"></path><path fill="#000000" d="M75.114 198.3994c-0.1178 -0.2006 -0.31 -0.3464 -0.5348 -0.4056 -0.2248 -0.0592 -0.464 -0.027 -0.6652 0.0896 -14.718 11.3366 -29.2 23.0366 -43.3 34.9746 -0.868 0.734 0.386 1.978 1.248 1.248 14.478 -12.266 28.97 -23.94 42.938 -34.6966 0.1978 -0.1228 0.3406 -0.317 0.399 -0.5422 0.0586 -0.2252 0.028 -0.4644 -0.085 -0.6678Z" stroke-width="1"></path><path fill="#000000" d="M56.912 298.186c-10.226 -11.228 -21.282 -22.52 -23.91 -25.06 -0.082 -0.082 -0.1792 -0.148 -0.2862 -0.192 -0.1072 -0.044 -0.222 -0.066 -0.3378 -0.066 -0.1158 0 -0.2306 0.022 -0.3376 0.066 -0.1072 0.044 -0.2044 0.11 -0.2864 0.192 -0.082 0.082 -0.147 0.178 -0.1912 0.286 -0.0444 0.108 -0.0672 0.222 -0.0672 0.338 0 0.116 0.0228 0.23 0.0672 0.338 0.0442 0.106 0.1092 0.204 0.1912 0.286 9.328 9.65 13.964 14.138 23.91 25.06 0.766 0.842 2.012 -0.41 1.248 -1.248Z" stroke-width="1"></path><path fill="#000000" d="M162.626 129.4256c13.8 -11.68 28.22 -23.36 42.942 -34.698 0.196 -0.1224 0.338 -0.3144 0.396 -0.5372 0.06 -0.2228 0.032 -0.4598 -0.078 -0.6628 -0.118 -0.2002 -0.31 -0.3456 -0.536 -0.4048 -0.224 -0.0592 -0.462 -0.0272 -0.664 0.0888 -14.718 11.336 -29.2 23.036 -43.3 34.974 -0.876 0.726 0.378 1.97 1.24 1.24Z" stroke-width="1"></path><path fill="#000000" d="M144.658 231.248c-0.2182 -0.054 -0.4484 -0.02 -0.6432 0.09 -0.1948 0.112 -0.3396 0.294 -0.4048 0.51 -0.32 1.156 -0.66 2.304 -0.958 3.464 -0.057 0.224 -0.0238 0.46 0.0924 0.66 0.1164 0.2 0.3064 0.348 0.5294 0.408 0.223 0.062 0.4612 0.034 0.6634 -0.078 0.2024 -0.112 0.3528 -0.3 0.4188 -0.52 0.3386 -1.152 0.6572 -2.306 0.956 -3.464 0.0288 -0.114 0.0346 -0.232 0.0172 -0.348 -0.0174 -0.116 -0.0578 -0.226 -0.1188 -0.326 -0.061 -0.1 -0.1412 -0.186 -0.236 -0.254 -0.095 -0.068 -0.2026 -0.116 -0.3164 -0.142Z" stroke-width="1"></path><path fill="#000000" d="M152.246 235.744c-0.448 0.878 -1.0962 1.64 -1.892 2.222 -0.914 0.656 -0.034 2.19 0.89 1.524 1.0542 -0.74 1.9202 -1.718 2.528 -2.854 0.528 -1.004 -0.996 -1.898 -1.526 -0.892Z" stroke-width="1"></path><path fill="#000000" d="m141.104 290.864 -5.36 1.582c-0.2152 0.072 -0.3946 0.224 -0.5014 0.422 -0.1068 0.2 -0.1326 0.434 -0.0722 0.652 0.0602 0.22 0.2022 0.406 0.3964 0.522 0.1942 0.118 0.426 0.156 0.6472 0.106 1.8 -0.48 3.572 -1.054 5.358 -1.58 0.2194 -0.068 0.4036 -0.218 0.514 -0.42 0.1104 -0.2 0.138 -0.436 0.0772 -0.658 -0.0608 -0.222 -0.2054 -0.41 -0.403 -0.528 -0.1976 -0.116 -0.433 -0.152 -0.6562 -0.098Z" stroke-width="1"></path></g></svg>